<svg width="28" height="28" viewBox="0 0 28 28" fill="none" xmlns="http://www.w3.org/2000/svg">
<path d="M20.359 26.5417C19.0407 26.5417 17.6523 26.2267 16.2173 25.62C14.8173 25.025 13.4057 24.2084 12.029 23.2167C10.664 22.2134 9.34565 21.0934 8.09732 19.8684C6.86065 18.62 5.74065 17.3017 4.74898 15.9484C3.74565 14.5484 2.94065 13.1484 2.36898 11.795C1.76232 10.3484 1.45898 8.94837 1.45898 7.63004C1.45898 6.72004 1.62232 5.85671 1.93732 5.05171C2.26398 4.22337 2.78898 3.45337 3.50065 2.78837C4.39898 1.90171 5.42565 1.45837 6.52232 1.45837C6.97732 1.45837 7.44398 1.56337 7.84065 1.75004C8.29565 1.96004 8.68065 2.27504 8.96065 2.69504L11.6673 6.51004C11.9123 6.84837 12.099 7.17504 12.2273 7.50171C12.379 7.85171 12.4607 8.20171 12.4607 8.54004C12.4607 8.98337 12.3323 9.41504 12.0873 9.82337C11.9123 10.1384 11.644 10.4767 11.3056 10.815L10.5123 11.6434C10.524 11.6784 10.5357 11.7017 10.5473 11.725C10.6873 11.97 10.9673 12.39 11.504 13.02C12.0757 13.6734 12.6123 14.2684 13.149 14.8167C13.8373 15.4934 14.409 16.03 14.9457 16.4734C15.6107 17.0334 16.0423 17.3134 16.299 17.4417L16.2757 17.5L17.1273 16.66C17.489 16.2984 17.839 16.03 18.1773 15.855C18.819 15.4584 19.6357 15.3884 20.4523 15.7267C20.7557 15.855 21.0823 16.03 21.4323 16.275L25.3057 19.0284C25.7373 19.32 26.0523 19.6934 26.239 20.1367C26.414 20.58 26.4956 20.9884 26.4956 21.3967C26.4956 21.9567 26.3673 22.5167 26.1223 23.0417C25.8773 23.5667 25.574 24.0217 25.189 24.4417C24.524 25.1767 23.8007 25.7017 22.9607 26.04C22.1557 26.3667 21.2807 26.5417 20.359 26.5417ZM6.52232 3.20837C5.88065 3.20837 5.28565 3.48837 4.71398 4.04837C4.17732 4.55004 3.80398 5.09837 3.57065 5.69337C3.32565 6.30004 3.20898 6.94171 3.20898 7.63004C3.20898 8.71504 3.46565 9.89337 3.97898 11.1067C4.50398 12.3434 5.23898 13.6267 6.17232 14.91C7.10565 16.1934 8.16732 17.4417 9.33398 18.62C10.5007 19.775 11.7607 20.8484 13.0556 21.7934C14.3156 22.715 15.6107 23.4617 16.894 23.9984C18.889 24.85 20.7557 25.0484 22.2957 24.4067C22.8907 24.1617 23.4156 23.7884 23.894 23.2517C24.1623 22.96 24.3723 22.645 24.5473 22.2717C24.6873 21.98 24.7573 21.6767 24.7573 21.3734C24.7573 21.1867 24.7223 21 24.629 20.79C24.594 20.72 24.524 20.5917 24.3023 20.44L20.429 17.6867C20.1957 17.5234 19.9856 17.4067 19.7873 17.325C19.5306 17.22 19.4256 17.115 19.029 17.36C18.7957 17.4767 18.5856 17.6517 18.3523 17.885L17.4657 18.76C17.0107 19.2034 16.3107 19.3084 15.774 19.11L15.459 18.97C14.9807 18.7134 14.4207 18.3167 13.8023 17.7917C13.2423 17.3134 12.6357 16.7534 11.9007 16.03C11.329 15.4467 10.7573 14.8284 10.1623 14.14C9.61398 13.4984 9.21732 12.95 8.97232 12.495L8.83232 12.145C8.76232 11.8767 8.73898 11.725 8.73898 11.5617C8.73898 11.1417 8.89065 10.7684 9.18232 10.4767L10.0573 9.56671C10.2907 9.33337 10.4657 9.11171 10.5823 8.91337C10.6757 8.76171 10.7107 8.63337 10.7107 8.51671C10.7107 8.42337 10.6757 8.28337 10.6173 8.14337C10.5357 7.95671 10.4073 7.74671 10.244 7.52504L7.53732 3.69837C7.42065 3.53504 7.28065 3.41837 7.10565 3.33671C6.91898 3.25504 6.72065 3.20837 6.52232 3.20837ZM16.2757 17.5117L16.089 18.305L16.404 17.4884C16.3457 17.4767 16.299 17.4884 16.2757 17.5117Z" fill="#01AA85"/>
</svg>
