<svg width="36" height="36" viewBox="0 0 36 36" fill="none" xmlns="http://www.w3.org/2000/svg">
<path d="M4.48067 21.0231C4.18284 20.7253 3.94292 20.353 3.78573 19.9145C3.62854 19.4761 3.52926 19.0128 3.50444 18.5081C3.46308 17.656 3.58718 16.8866 3.88501 16.1751C4.17456 15.4719 4.60476 14.8266 5.18388 14.2475C6.02774 13.4036 7.12805 12.7004 8.48484 12.1544C9.84163 11.6084 11.3391 11.203 12.9689 10.9465C14.6152 10.69 16.2864 10.5577 17.9989 10.5494C19.7114 10.5577 21.3826 10.69 23.0124 10.9465C24.6339 11.2112 26.1231 11.6084 27.455 12.1461C28.7953 12.6921 29.8956 13.3953 30.756 14.2557C31.3186 14.8183 31.757 15.4553 32.0549 16.1503C32.361 16.8535 32.5099 17.6312 32.4851 18.4833C32.4768 19.534 32.1541 20.3695 31.5419 20.9818C31.3103 21.2134 31.029 21.3954 30.7229 21.503C30.4085 21.6188 30.0693 21.6601 29.7053 21.594L25.0806 20.808C24.7249 20.7501 24.4271 20.6674 24.1706 20.5598C23.9224 20.4606 23.7073 20.3282 23.5501 20.171C23.3516 19.9724 23.2109 19.716 23.1365 19.4099C23.0537 19.112 23.0124 18.7563 23.0124 18.3592L22.9876 17.0769C22.9876 16.8949 22.9214 16.7459 22.789 16.6136C22.7228 16.5474 22.6566 16.4977 22.5739 16.4481C22.4829 16.4067 22.4084 16.3819 22.3423 16.3488C21.9203 16.2247 21.3081 16.1255 20.5139 16.0593C19.7114 16.0014 18.8758 15.96 18.0072 15.9517C17.1219 15.96 16.2864 15.9848 15.4756 16.051C14.6814 16.1172 14.0774 16.2247 13.6472 16.3571C13.5893 16.3819 13.5149 16.4067 13.4321 16.4398C13.3411 16.4812 13.2667 16.5391 13.1922 16.6136C13.0516 16.7542 12.9937 16.9114 12.9937 17.0934L12.9854 18.3426C12.9854 18.7563 12.944 19.112 12.853 19.4016C12.7786 19.7077 12.6462 19.9559 12.4394 20.1627C12.2822 20.3199 12.0836 20.4523 11.8272 20.5598C11.5707 20.6674 11.2729 20.7501 10.9254 20.8163L6.24283 21.6105C5.87882 21.6767 5.55617 21.6519 5.25834 21.5361C4.96878 21.412 4.71231 21.2548 4.48067 21.0231Z" fill="white"/>
</svg>
