<svg width="20" height="20" viewBox="0 0 20 20" fill="none" xmlns="http://www.w3.org/2000/svg">
<path d="M18.3084 15.2751C18.3084 15.5751 18.2417 15.8834 18.1001 16.1834C17.9584 16.4834 17.7751 16.7667 17.5334 17.0334C17.1251 17.4834 16.6751 17.8084 16.1667 18.0167C15.6667 18.2251 15.1251 18.3334 14.5417 18.3334C13.6917 18.3334 12.7834 18.1334 11.8251 17.7251C10.8667 17.3167 9.90842 16.7667 8.95842 16.0751C8.00008 15.3751 7.09175 14.6001 6.22508 13.7417C5.36675 12.8751 4.59175 11.9667 3.90008 11.0167C3.21675 10.0667 2.66675 9.11675 2.26675 8.17508C1.86675 7.22508 1.66675 6.31675 1.66675 5.45008C1.66675 4.88341 1.76675 4.34175 1.96675 3.84175C2.16675 3.33341 2.48341 2.86675 2.92508 2.45008C3.45841 1.92508 4.04175 1.66675 4.65841 1.66675C4.89175 1.66675 5.12508 1.71675 5.33341 1.81675C5.55008 1.91675 5.74175 2.06675 5.89175 2.28341L7.82508 5.00841C7.97508 5.21675 8.08341 5.40841 8.15841 5.59175C8.23341 5.76675 8.27508 5.94175 8.27508 6.10008C8.27508 6.30008 8.21675 6.50008 8.10008 6.69175C7.99175 6.88341 7.83341 7.08341 7.63341 7.28341L7.00008 7.94175C6.90841 8.03341 6.86675 8.14175 6.86675 8.27508C6.86675 8.34175 6.87508 8.40008 6.89175 8.46675C6.91675 8.53341 6.94175 8.58341 6.95842 8.63341C7.10842 8.90841 7.36675 9.26675 7.73341 9.70008C8.10841 10.1334 8.50841 10.5751 8.94175 11.0167C9.39175 11.4584 9.82508 11.8667 10.2667 12.2417C10.7001 12.6084 11.0584 12.8584 11.3417 13.0084C11.3834 13.0251 11.4334 13.0501 11.4917 13.0751C11.5584 13.1001 11.6251 13.1084 11.7001 13.1084C11.8417 13.1084 11.9501 13.0584 12.0417 12.9667L12.6751 12.3417C12.8834 12.1334 13.0834 11.9751 13.2751 11.8751C13.4667 11.7584 13.6584 11.7001 13.8667 11.7001C14.0251 11.7001 14.1917 11.7334 14.3751 11.8084C14.5584 11.8834 14.7501 11.9917 14.9584 12.1334L17.7167 14.0917C17.9334 14.2417 18.0834 14.4167 18.1751 14.6251C18.2584 14.8334 18.3084 15.0417 18.3084 15.2751Z" stroke="#2C2C2C" stroke-miterlimit="10"/>
<path d="M12.9167 5H17.0834" stroke="#2C2C2C" stroke-linecap="round" stroke-linejoin="round"/>
<path d="M15 7.08341V2.91675" stroke="#2C2C2C" stroke-linecap="round" stroke-linejoin="round"/>
</svg>
