<svg width="24" height="24" viewBox="0 0 24 24" fill="none" xmlns="http://www.w3.org/2000/svg">
<path d="M18.4701 16.83L18.8601 19.99C18.9601 20.82 18.0701 21.4 17.3601 20.97L13.1701 18.48C12.7101 18.48 12.2601 18.45 11.8201 18.39C12.5601 17.52 13.0001 16.42 13.0001 15.23C13.0001 12.39 10.5401 10.09 7.50009 10.09C6.34009 10.09 5.2701 10.42 4.3801 11C4.3501 10.75 4.34009 10.5 4.34009 10.24C4.34009 5.68999 8.29009 2 13.1701 2C18.0501 2 22.0001 5.68999 22.0001 10.24C22.0001 12.94 20.6101 15.33 18.4701 16.83Z" stroke="#7F8384" stroke-width="1.5" stroke-linecap="round" stroke-linejoin="round"/>
<path d="M13 15.2298C13 16.4198 12.56 17.5198 11.82 18.3898C10.83 19.5898 9.26 20.3598 7.5 20.3598L4.89 21.9098C4.45 22.1798 3.89 21.8098 3.95 21.2998L4.2 19.3298C2.86 18.3998 2 16.9098 2 15.2298C2 13.4698 2.94 11.9198 4.38 10.9998C5.27 10.4198 6.34 10.0898 7.5 10.0898C10.54 10.0898 13 12.3898 13 15.2298Z" stroke="#7F8384" stroke-width="1.5" stroke-linecap="round" stroke-linejoin="round"/>
</svg>
