<svg width="20" height="20" viewBox="0 0 20 20" fill="none" xmlns="http://www.w3.org/2000/svg">
<path d="M15.3916 14.0251L15.7166 16.6584C15.7999 17.3501 15.0582 17.8334 14.4666 17.4751L11.5832 15.7584C11.3832 15.6417 11.3332 15.3917 11.4416 15.1917C11.8582 14.4251 12.0832 13.5584 12.0832 12.6917C12.0832 9.64175 9.46658 7.15841 6.24991 7.15841C5.59158 7.15841 4.94991 7.25841 4.34991 7.45841C4.04158 7.55841 3.74158 7.27508 3.81658 6.95842C4.57491 3.92508 7.49158 1.66675 10.9749 1.66675C15.0416 1.66675 18.3332 4.74175 18.3332 8.53341C18.3332 10.7834 17.1749 12.7751 15.3916 14.0251Z" fill="#3164BD"/>
<path d="M10.8334 12.6918C10.8334 13.6834 10.4667 14.6001 9.85008 15.3251C9.02508 16.3251 7.71675 16.9668 6.25008 16.9668L4.07508 18.2584C3.70841 18.4834 3.24175 18.1751 3.29175 17.7501L3.50008 16.1084C2.38341 15.3334 1.66675 14.0918 1.66675 12.6918C1.66675 11.2251 2.45008 9.93345 3.65008 9.16678C4.39175 8.68345 5.28341 8.40845 6.25008 8.40845C8.78341 8.40845 10.8334 10.3251 10.8334 12.6918Z" fill="#3164BD"/>
</svg>
