<svg width="24" height="24" viewBox="0 0 24 24" fill="none" xmlns="http://www.w3.org/2000/svg">
<path d="M18.4704 16.83L18.8604 19.99C18.9604 20.82 18.0704 21.4 17.3604 20.97L13.9004 18.91C13.6604 18.77 13.6004 18.47 13.7304 18.23C14.2304 17.31 14.5004 16.27 14.5004 15.23C14.5004 11.57 11.3604 8.59 7.50038 8.59C6.71038 8.59 5.94038 8.71 5.22038 8.95C4.85038 9.07 4.49038 8.73 4.58038 8.35C5.49038 4.71 8.99038 2 13.1704 2C18.0504 2 22.0004 5.69 22.0004 10.24C22.0004 12.94 20.6104 15.33 18.4704 16.83Z" fill="#01AA85"/>
<path d="M13 15.23C13 16.42 12.56 17.52 11.82 18.39C10.83 19.59 9.26 20.36 7.5 20.36L4.89 21.91C4.45 22.18 3.89 21.81 3.95 21.3L4.2 19.33C2.86 18.4 2 16.91 2 15.23C2 13.47 2.94 11.92 4.38 11C5.27 10.42 6.34 10.09 7.5 10.09C10.54 10.09 13 12.39 13 15.23Z" fill="#01AA85"/>
</svg>
