<svg width="16" height="16" viewBox="0 0 16 16" fill="none" xmlns="http://www.w3.org/2000/svg">
<path d="M6.57988 3.78039L4.29988 5.16707L3.25988 3.46041C2.87988 2.83374 3.07988 2.00707 3.70655 1.62707C4.33321 1.24707 5.15988 1.44706 5.53988 2.07373L6.57988 3.78039Z" stroke="#2C2C2C" stroke-width="0.8" stroke-linecap="round" stroke-linejoin="round"/>
<path d="M7.88008 6.10705L5.77341 7.38708C4.54674 8.13375 4.17341 9.64041 4.76674 10.8404L6.13341 13.6271C6.57341 14.5271 7.64008 14.8404 8.49341 14.3137L12.7801 11.7071C13.6401 11.1871 13.8467 10.1004 13.2534 9.29374L11.4067 6.80041C10.6067 5.72041 9.10675 5.36038 7.88008 6.10705Z" stroke="#2C2C2C" stroke-width="0.8" stroke-linecap="round" stroke-linejoin="round"/>
<path d="M7.17104 3.39909L3.75464 5.47949L5.14157 7.75709L8.55797 5.67669L7.17104 3.39909Z" stroke="#2C2C2C" stroke-width="0.8" stroke-linecap="round" stroke-linejoin="round"/>
<path d="M9.54004 11.207L10.64 13.0137" stroke="#2C2C2C" stroke-width="0.8" stroke-linecap="round" stroke-linejoin="round"/>
<path d="M7.83325 12.2471L8.93325 14.0538" stroke="#2C2C2C" stroke-width="0.8" stroke-linecap="round" stroke-linejoin="round"/>
<path d="M11.2466 10.167L12.3466 11.9737" stroke="#2C2C2C" stroke-width="0.8" stroke-linecap="round" stroke-linejoin="round"/>
</svg>
