<svg width="20" height="25" viewBox="0 0 20 25" fill="none" xmlns="http://www.w3.org/2000/svg">
<path d="M12.5 0H2.5C1.83696 0 1.20107 0.263392 0.732233 0.732233C0.263392 1.20107 0 1.83696 0 2.5V22.5C0 23.163 0.263392 23.7989 0.732233 24.2678C1.20107 24.7366 1.83696 25 2.5 25H17.5C18.163 25 18.7989 24.7366 19.2678 24.2678C19.7366 23.7989 20 23.163 20 22.5V7.5L12.5 0ZM6.44375 19.3175C5.91125 19.76 5.1025 19.9688 4.11375 19.9688C3.52 19.9688 3.10125 19.9313 2.81625 19.8938V14.93C3.32746 14.8564 3.84353 14.8217 4.36 14.8263C5.32 14.8263 5.9425 14.9988 6.42875 15.3663C6.95375 15.7563 7.28375 16.3787 7.28375 17.2687C7.28375 18.2375 6.93125 18.905 6.44375 19.3175ZM10.1813 20C8.68125 20 7.805 18.8675 7.805 17.4275C7.805 15.9138 8.77125 14.7825 10.2638 14.7825C11.815 14.7825 12.6625 15.9438 12.6625 17.3388C12.6613 18.995 11.6563 20 10.1813 20ZM16 19.0475C16.3438 19.0475 16.7262 18.9713 16.9525 18.8825L17.125 19.7738C16.915 19.8787 16.4425 19.9912 15.8288 19.9912C14.0825 19.9912 13.1825 18.905 13.1825 17.465C13.1825 15.7413 14.4113 14.7825 15.9412 14.7825C16.5338 14.7825 16.9825 14.9025 17.185 15.0075L16.9525 15.915C16.6482 15.7892 16.3218 15.7255 15.9925 15.7275C15.085 15.7275 14.38 16.275 14.38 17.4C14.38 18.4113 14.98 19.0475 16 19.0475ZM12.5 8.75H11.25V2.5L17.5 8.75H12.5Z" fill="#3164BD"/>
</svg>
