<svg width="19" height="19" viewBox="0 0 19 19" fill="none" xmlns="http://www.w3.org/2000/svg">
<path d="M8.70837 1.58331H7.12504C3.16671 1.58331 1.58337 3.16665 1.58337 7.12498V11.875C1.58337 15.8333 3.16671 17.4166 7.12504 17.4166H11.875C15.8334 17.4166 17.4167 15.8333 17.4167 11.875V10.2916" stroke="#01AA85" stroke-linecap="round" stroke-linejoin="round"/>
<path d="M12.6984 2.39085L6.46003 8.62918C6.22253 8.86668 5.98503 9.33377 5.93753 9.67418L5.59711 12.0571C5.47044 12.92 6.08003 13.5217 6.94294 13.4029L9.32586 13.0625C9.65836 13.015 10.1254 12.7775 10.3709 12.54L16.6092 6.30168C17.6859 5.22502 18.1925 3.97418 16.6092 2.39085C15.0259 0.807517 13.775 1.31418 12.6984 2.39085Z" stroke="#01AA85" stroke-miterlimit="10" stroke-linecap="round" stroke-linejoin="round"/>
<path d="M11.8037 3.2854C12.3341 5.17748 13.8145 6.6579 15.7145 7.19623" stroke="#01AA85" stroke-miterlimit="10" stroke-linecap="round" stroke-linejoin="round"/>
</svg>
