<svg width="26" height="26" viewBox="0 0 26 26" fill="none" xmlns="http://www.w3.org/2000/svg">
<path d="M13.0001 2.59961C15.7583 2.59961 18.4036 3.69532 20.354 5.6457C22.3044 7.59608 23.4001 10.2414 23.4001 12.9996C23.4001 15.7579 22.3044 18.4031 20.354 20.3535C18.4036 22.3039 15.7583 23.3996 13.0001 23.3996C10.2418 23.3996 7.59657 22.3039 5.64619 20.3535C3.69581 18.4031 2.6001 15.7579 2.6001 12.9996C2.6001 10.2414 3.69581 7.59608 5.64619 5.6457C7.59657 3.69532 10.2418 2.59961 13.0001 2.59961ZM13.0001 3.89961C11.8051 3.89961 10.6217 4.13499 9.51768 4.59231C8.41362 5.04962 7.41044 5.71992 6.56543 6.56494C5.72041 7.40995 5.05011 8.41313 4.59279 9.51719C4.13548 10.6213 3.9001 11.8046 3.9001 12.9996C3.9001 14.1946 4.13548 15.378 4.59279 16.482C5.05011 17.5861 5.72041 18.5893 6.56543 19.4343C7.41044 20.2793 8.41362 20.9496 9.51768 21.4069C10.6217 21.8642 11.8051 22.0996 13.0001 22.0996C15.4136 22.0996 17.7282 21.1409 19.4348 19.4343C21.1413 17.7277 22.1001 15.4131 22.1001 12.9996C22.1001 10.5861 21.1413 8.27152 19.4348 6.56494C17.7282 4.85836 15.4136 3.89961 13.0001 3.89961ZM9.3016 16.1547C10.2413 17.1008 11.5076 17.6509 12.8404 17.692C14.1732 17.7331 15.471 17.262 16.4672 16.3757L16.6986 16.1547C16.8128 16.0386 16.9664 15.9697 17.129 15.9614C17.2917 15.9532 17.4515 16.0063 17.5768 16.1103C17.7022 16.2142 17.7839 16.3614 17.8059 16.5227C17.828 16.6841 17.7886 16.8478 17.6957 16.9815L17.6216 17.0725L17.5917 17.1011C16.9848 17.7041 16.2651 18.1817 15.4736 18.5066C14.6822 18.8314 13.8345 18.9972 12.979 18.9944C12.1234 18.9916 11.2768 18.8204 10.4875 18.4904C9.69815 18.1604 8.98155 17.6782 8.3786 17.0712C8.25706 16.9488 8.18913 16.7831 8.18974 16.6107C8.19035 16.4382 8.25945 16.273 8.38185 16.1515C8.50425 16.0299 8.66991 15.962 8.8424 15.9626C9.01488 15.9632 9.18006 16.0323 9.3016 16.1547ZM16.2501 9.74961C16.5949 9.74961 16.9255 9.88657 17.1693 10.1304C17.4131 10.3742 17.5501 10.7048 17.5501 11.0496C17.5501 11.3944 17.4131 11.725 17.1693 11.9688C16.9255 12.2126 16.5949 12.3496 16.2501 12.3496C15.9053 12.3496 15.5747 12.2126 15.3309 11.9688C15.0871 11.725 14.9501 11.3944 14.9501 11.0496C14.9501 10.7048 15.0871 10.3742 15.3309 10.1304C15.5747 9.88657 15.9053 9.74961 16.2501 9.74961ZM9.7501 9.74961C10.0949 9.74961 10.4255 9.88657 10.6693 10.1304C10.9131 10.3742 11.0501 10.7048 11.0501 11.0496C11.0501 11.3944 10.9131 11.725 10.6693 11.9688C10.4255 12.2126 10.0949 12.3496 9.7501 12.3496C9.40532 12.3496 9.07466 12.2126 8.83086 11.9688C8.58706 11.725 8.4501 11.3944 8.4501 11.0496C8.4501 10.7048 8.58706 10.3742 8.83086 10.1304C9.07466 9.88657 9.40532 9.74961 9.7501 9.74961Z" fill="#7F8384"/>
</svg>
