<svg width="20" height="20" viewBox="0 0 20 20" fill="none" xmlns="http://www.w3.org/2000/svg">
<path d="M12.7001 18.5583H12.5918C8.89176 18.5583 7.10843 17.1 6.80009 13.8333C6.76676 13.4917 7.01676 13.1833 7.36676 13.15C7.70843 13.1166 8.01676 13.375 8.05009 13.7167C8.29176 16.3333 9.52509 17.3083 12.6001 17.3083H12.7084C16.1001 17.3083 17.3001 16.1083 17.3001 12.7167V7.28332C17.3001 3.89165 16.1001 2.69165 12.7084 2.69165H12.6001C9.50843 2.69165 8.27509 3.68332 8.05009 6.34998C8.00843 6.69165 7.72509 6.94998 7.36676 6.91665C7.01676 6.89165 6.76676 6.58332 6.79176 6.24165C7.07509 2.92498 8.86676 1.44165 12.5918 1.44165H12.7001C16.7918 1.44165 18.5418 3.19165 18.5418 7.28332V12.7167C18.5418 16.8083 16.7918 18.5583 12.7001 18.5583Z" fill="#FF5151"/>
<path d="M12.3998 10.625H1.6665C1.32484 10.625 1.0415 10.3417 1.0415 10C1.0415 9.65833 1.32484 9.375 1.6665 9.375H12.3998C12.7415 9.375 13.0248 9.65833 13.0248 10C13.0248 10.3417 12.7498 10.625 12.3998 10.625Z" fill="#FF5151"/>
<path d="M10.5414 13.4167C10.383 13.4167 10.2247 13.3584 10.0997 13.2334C9.85804 12.9917 9.85804 12.5917 10.0997 12.35L12.4497 10L10.0997 7.65003C9.85804 7.40837 9.85804 7.00837 10.0997 6.7667C10.3414 6.52503 10.7414 6.52503 10.983 6.7667L13.7747 9.55837C14.0164 9.80003 14.0164 10.2 13.7747 10.4417L10.983 13.2334C10.858 13.3584 10.6997 13.4167 10.5414 13.4167Z" fill="#FF5151"/>
</svg>
