<svg width="22" height="20" viewBox="0 0 22 20" fill="none" xmlns="http://www.w3.org/2000/svg">
<path d="M6.578 8.059C7.2995 7.984 7.8575 8.1145 8.057 8.2135C8.14541 8.26117 8.24249 8.2906 8.34249 8.30005C8.44248 8.30949 8.54336 8.29874 8.63913 8.26846C8.73489 8.23817 8.8236 8.18896 8.89999 8.12374C8.97637 8.05851 9.03888 7.97861 9.0838 7.88878C9.12872 7.79894 9.15514 7.70099 9.16148 7.60075C9.16783 7.50051 9.15397 7.40001 9.12074 7.30523C9.08751 7.21044 9.03558 7.1233 8.96803 7.04896C8.90048 6.97463 8.81868 6.91462 8.7275 6.8725C8.201 6.6085 7.3355 6.472 6.422 6.568C4.982 6.718 3.5 7.969 3.5 10.0135C3.5 12.091 5.081 13.4635 6.95 13.4635C7.82 13.4635 8.6 13.0555 9.0455 12.634C9.4385 12.262 9.5 11.7685 9.5 11.4595V10.0135C9.5 9.81459 9.42098 9.62382 9.28033 9.48317C9.13968 9.34252 8.94891 9.2635 8.75 9.2635H7.5395C7.34059 9.2635 7.14982 9.34252 7.00917 9.48317C6.86852 9.62382 6.7895 9.81459 6.7895 10.0135C6.7895 10.2124 6.86852 10.4032 7.00917 10.5438C7.14982 10.6845 7.34059 10.7635 7.5395 10.7635H8V11.4595C7.99997 11.4952 7.99696 11.5308 7.991 11.566C7.69896 11.8124 7.33198 11.9526 6.95 11.9635C5.8535 11.9635 5 11.206 5 10.0135C5 8.7865 5.8505 8.1355 6.578 8.059ZM12.5 7.315C12.5 7.11609 12.421 6.92532 12.2803 6.78467C12.1397 6.64402 11.9489 6.565 11.75 6.565C11.5511 6.565 11.3603 6.64402 11.2197 6.78467C11.079 6.92532 11 7.11609 11 7.315V12.715C11 12.9139 11.079 13.1047 11.2197 13.2453C11.3603 13.386 11.5511 13.465 11.75 13.465C11.9489 13.465 12.1397 13.386 12.2803 13.2453C12.421 13.1047 12.5 12.9139 12.5 12.715V7.315ZM14.75 6.565C14.5511 6.565 14.3603 6.64402 14.2197 6.78467C14.079 6.92532 14 7.11609 14 7.315V12.715C14 12.9139 14.079 13.1047 14.2197 13.2453C14.3603 13.386 14.5511 13.465 14.75 13.465C14.9489 13.465 15.1397 13.386 15.2803 13.2453C15.421 13.1047 15.5 12.9139 15.5 12.715V10.759L17.0045 10.75C17.2034 10.7488 17.3937 10.6686 17.5335 10.5271C17.6733 10.3857 17.7512 10.1944 17.75 9.9955C17.7488 9.79659 17.6686 9.6063 17.5271 9.46649C17.3857 9.32668 17.1944 9.24881 16.9955 9.25L15.5 9.259V8.0635H17.75C17.9489 8.0635 18.1397 7.98448 18.2803 7.84383C18.421 7.70318 18.5 7.51241 18.5 7.3135C18.5 7.11459 18.421 6.92382 18.2803 6.78317C18.1397 6.64252 17.9489 6.5635 17.75 6.5635L14.75 6.565ZM4.25 1C3.25544 1 2.30161 1.39509 1.59835 2.09835C0.895088 2.80161 0.5 3.75544 0.5 4.75V15.25C0.5 16.2446 0.895088 17.1984 1.59835 17.9017C2.30161 18.6049 3.25544 19 4.25 19H17.75C18.7446 19 19.6984 18.6049 20.4017 17.9017C21.1049 17.1984 21.5 16.2446 21.5 15.25V4.75C21.5 3.75544 21.1049 2.80161 20.4017 2.09835C19.6984 1.39509 18.7446 1 17.75 1H4.25ZM2 4.75C2 4.15326 2.23705 3.58097 2.65901 3.15901C3.08097 2.73705 3.65326 2.5 4.25 2.5H17.75C18.3467 2.5 18.919 2.73705 19.341 3.15901C19.7629 3.58097 20 4.15326 20 4.75V15.25C20 15.8467 19.7629 16.419 19.341 16.841C18.919 17.2629 18.3467 17.5 17.75 17.5H4.25C3.65326 17.5 3.08097 17.2629 2.65901 16.841C2.23705 16.419 2 15.8467 2 15.25V4.75Z" fill="#7F8384" stroke="white" stroke-width="0.2"/>
</svg>
