<svg width="21" height="19" viewBox="0 0 21 19" fill="none" xmlns="http://www.w3.org/2000/svg">
<path d="M3.86161 9.86377C3.10723 9.86377 2.4958 10.3789 2.4958 11.0142V11.6573H2.47517C1.38625 11.6573 0.503418 12.4009 0.503418 13.3181V15.5456C0.503418 16.463 1.38621 17.2066 2.47517 17.2066H2.4958V17.8496C2.4958 18.4851 3.10719 19.0001 3.86161 19.0001C4.61588 19.0001 5.22735 18.4851 5.22735 17.8496V11.0142C5.22735 10.3789 4.61588 9.86377 3.86161 9.86377Z" fill="white"/>
<path d="M17.7229 11.6573H17.7022V11.0142C17.7022 10.3788 17.0909 9.86377 16.3364 9.86377C15.5822 9.86377 14.9707 10.3789 14.9707 11.0142V17.8496C14.9707 18.485 15.5822 19.0001 16.3364 19.0001C17.0908 19.0001 17.7022 18.485 17.7022 17.8496V17.2066H17.7229C18.8118 17.2066 19.6946 16.463 19.6946 15.5456V13.3181C19.6946 12.4008 18.8118 11.6573 17.7229 11.6573Z" fill="white"/>
<path d="M10.099 0C4.52148 0 0 4.5214 0 10.0989C0 10.5579 0.0310466 11.0096 0.0903388 11.4523C0.1619 11.3778 0.237918 11.3063 0.318395 11.2385C0.618367 10.9859 0.965718 10.7913 1.34143 10.6617C1.42838 10.1398 1.70634 9.65517 2.13322 9.29559C2.15464 9.27756 2.17669 9.26028 2.19866 9.243C2.62566 5.25701 5.9996 2.15263 10.099 2.15263C14.1984 2.15263 17.5724 5.25705 17.9994 9.243C18.0214 9.26032 18.0434 9.27756 18.0648 9.29559C18.4917 9.65521 18.7696 10.1399 18.8566 10.6617C19.2323 10.7913 19.5797 10.9859 19.8796 11.2385C19.9601 11.3063 20.0361 11.3778 20.1077 11.4523C20.167 11.0096 20.198 10.5579 20.198 10.0989C20.198 4.52144 15.6765 0 10.099 0Z" fill="white"/>
</svg>
