<svg width="17" height="23" viewBox="0 0 17 23" fill="none" xmlns="http://www.w3.org/2000/svg">
<path d="M5 2.5L0 0.113249L0 5.88675L5 3.5V2.5ZM11.3333 3C11.3333 4.47276 12.5272 5.66667 14 5.66667C15.4728 5.66667 16.6667 4.47276 16.6667 3C16.6667 1.52724 15.4728 0.333333 14 0.333333C12.5272 0.333333 11.3333 1.52724 11.3333 3ZM4.5 3.5H14V2.5H4.5V3.5Z" fill="#7F8384" fill-opacity="0.15"/>
<path d="M5 19.5L2.52368e-07 17.1132L-2.52368e-07 22.8868L5 20.5L5 19.5ZM11.3333 20C11.3333 21.4728 12.5272 22.6667 14 22.6667C15.4728 22.6667 16.6667 21.4728 16.6667 20C16.6667 18.5272 15.4728 17.3333 14 17.3333C12.5272 17.3333 11.3333 18.5272 11.3333 20ZM4.5 20.5L14 20.5L14 19.5L4.5 19.5L4.5 20.5Z" fill="#7F8384" fill-opacity="0.15"/>
</svg>
