    <svg width="22" height="22" viewBox="0 0 22 22" fill="none" xmlns="http://www.w3.org/2000/svg">
<path d="M15.5741 8.90088H6.42578C6.04995 8.90088 5.73828 8.58921 5.73828 8.21338C5.73828 7.83755 6.04995 7.52588 6.42578 7.52588H15.5741C15.9499 7.52588 16.2616 7.83755 16.2616 8.21338C16.2616 8.58921 15.9499 8.90088 15.5741 8.90088Z" fill="#010D21"/>
<path d="M11 8.90083C10.6242 8.90083 10.3125 8.58917 10.3125 8.21333V6.67334C10.3125 6.29751 10.6242 5.98584 11 5.98584C11.3758 5.98584 11.6875 6.29751 11.6875 6.67334V8.21333C11.6875 8.58917 11.3758 8.90083 11 8.90083Z" fill="#010D21"/>
<path d="M6.4165 16.014C6.04067 16.014 5.729 15.7023 5.729 15.3265C5.729 14.9506 6.04067 14.639 6.4165 14.639C9.8265 14.639 12.604 11.7515 12.604 8.19482C12.604 7.81899 12.9157 7.50732 13.2915 7.50732C13.6673 7.50732 13.979 7.81899 13.979 8.19482C13.979 12.5123 10.5873 16.014 6.4165 16.014Z" fill="#010D21"/>
<path d="M15.5838 16.0141C13.778 16.0141 12.1005 15.1158 10.8721 13.475C10.643 13.1725 10.7071 12.7417 11.0096 12.5125C11.3121 12.2834 11.743 12.3475 11.9721 12.65C12.9438 13.9333 14.2271 14.6391 15.593 14.6391C15.9688 14.6391 16.2805 14.9508 16.2805 15.3266C16.2805 15.7025 15.9596 16.0141 15.5838 16.0141Z" fill="#010D21"/>
<path d="M13.7502 20.8541H8.25016C3.27266 20.8541 1.146 18.7274 1.146 13.7499V8.24992C1.146 3.27242 3.27266 1.14575 8.25016 1.14575H13.7502C18.7277 1.14575 20.8543 3.27242 20.8543 8.24992V13.7499C20.8543 18.7274 18.7277 20.8541 13.7502 20.8541ZM8.25016 2.52075C4.02433 2.52075 2.521 4.02409 2.521 8.24992V13.7499C2.521 17.9758 4.02433 19.4791 8.25016 19.4791H13.7502C17.976 19.4791 19.4793 17.9758 19.4793 13.7499V8.24992C19.4793 4.02409 17.976 2.52075 13.7502 2.52075H8.25016Z" fill="#010D21"/>
</svg>
