<svg width="24" height="24" viewBox="0 0 24 24" fill="none" xmlns="http://www.w3.org/2000/svg">
<path d="M19.1199 9.12011C18.7299 9.12011 18.4199 9.43011 18.4199 9.82011V11.4001C18.4199 14.9401 15.5399 17.8201 11.9999 17.8201C8.45993 17.8201 5.57993 14.9401 5.57993 11.4001V9.81011C5.57993 9.42011 5.26993 9.11011 4.87993 9.11011C4.48993 9.11011 4.17993 9.42011 4.17993 9.81011V11.3901C4.17993 15.4601 7.30993 18.8101 11.2999 19.1701V21.3001C11.2999 21.6901 11.6099 22.0001 11.9999 22.0001C12.3899 22.0001 12.6999 21.6901 12.6999 21.3001V19.1701C16.6799 18.8201 19.8199 15.4601 19.8199 11.3901V9.81011C19.8099 9.43011 19.4999 9.12011 19.1199 9.12011Z" fill="white"/>
<path d="M12.0001 2C9.56008 2 7.58008 3.98 7.58008 6.42V11.54C7.58008 13.98 9.56008 15.96 12.0001 15.96C14.4401 15.96 16.4201 13.98 16.4201 11.54V6.42C16.4201 3.98 14.4401 2 12.0001 2ZM13.3101 8.95C13.2401 9.21 13.0101 9.38 12.7501 9.38C12.7001 9.38 12.6501 9.37 12.6001 9.36C12.2101 9.25 11.8001 9.25 11.4101 9.36C11.0901 9.45 10.7801 9.26 10.7001 8.95C10.6101 8.64 10.8001 8.32 11.1101 8.24C11.7001 8.08 12.3201 8.08 12.9101 8.24C13.2101 8.32 13.3901 8.64 13.3101 8.95ZM13.8401 7.01C13.7501 7.25 13.5301 7.39 13.2901 7.39C13.2201 7.39 13.1601 7.38 13.0901 7.36C12.3901 7.1 11.6101 7.1 10.9101 7.36C10.6101 7.47 10.2701 7.31 10.1601 7.01C10.0501 6.71 10.2101 6.37 10.5101 6.27C11.4701 5.92 12.5301 5.92 13.4901 6.27C13.7901 6.38 13.9501 6.71 13.8401 7.01Z" fill="white"/>
</svg>
