<svg width="28" height="28" viewBox="0 0 28 28" fill="none" xmlns="http://www.w3.org/2000/svg">
<g id="Frame 145">
<g id="vuesax/linear/call-add">
<g id="call-add">
<g id="call-add_2">
<path id="Vector" d="M25.6316 21.3847C25.6316 21.8047 25.5383 22.2363 25.3399 22.6563C25.1416 23.0763 24.8849 23.473 24.5466 23.8463C23.9749 24.4763 23.3449 24.9313 22.6333 25.223C21.9333 25.5147 21.1749 25.6663 20.3583 25.6663C19.1683 25.6663 17.8966 25.3863 16.5549 24.8147C15.2133 24.243 13.8716 23.473 12.5416 22.5047C11.1999 21.5247 9.92825 20.4397 8.71492 19.238C7.51325 18.0247 6.42825 16.753 5.45992 15.423C4.50325 14.093 3.73325 12.763 3.17325 11.4447C2.61325 10.1147 2.33325 8.84301 2.33325 7.62967C2.33325 6.83634 2.47325 6.07801 2.75325 5.37801C3.03325 4.66634 3.47659 4.01301 4.09492 3.42967C4.84159 2.69467 5.65825 2.33301 6.52159 2.33301C6.84825 2.33301 7.17492 2.40301 7.46659 2.54301C7.76992 2.68301 8.03825 2.89301 8.24825 3.19634L10.9549 7.01134C11.1649 7.30301 11.3166 7.57134 11.4216 7.82801C11.5266 8.07301 11.5849 8.31801 11.5849 8.53967C11.5849 8.81967 11.5033 9.09967 11.3399 9.36801C11.1883 9.63634 10.9666 9.91634 10.6866 10.1963L9.79992 11.118C9.67158 11.2463 9.61325 11.398 9.61325 11.5847C9.61325 11.678 9.62492 11.7597 9.64825 11.853C9.68325 11.9463 9.71825 12.0163 9.74159 12.0863C9.95159 12.4713 10.3133 12.973 10.8266 13.5797C11.3516 14.1863 11.9116 14.8047 12.5183 15.423C13.1483 16.0413 13.7549 16.613 14.3733 17.138C14.9799 17.6513 15.4816 18.0013 15.8783 18.2113C15.9366 18.2347 16.0066 18.2697 16.0883 18.3047C16.1816 18.3397 16.2749 18.3513 16.3799 18.3513C16.5783 18.3513 16.7299 18.2813 16.8583 18.153L17.7449 17.278C18.0366 16.9863 18.3166 16.7647 18.5849 16.6247C18.8533 16.4613 19.1216 16.3797 19.4133 16.3797C19.6349 16.3797 19.8683 16.4263 20.1249 16.5313C20.3816 16.6363 20.6499 16.788 20.9416 16.9863L24.8033 19.728C25.1066 19.938 25.3166 20.183 25.4449 20.4747C25.5616 20.7663 25.6316 21.058 25.6316 21.3847Z" stroke="white" stroke-width="1.5" stroke-miterlimit="10"/>
<path id="Vector_2" d="M18.0833 6.99902H23.9166" stroke="white" stroke-width="1.5" stroke-linecap="round" stroke-linejoin="round"/>
<path id="Vector_3" d="M20.9998 9.91634V4.08301" stroke="white" stroke-width="1.5" stroke-linecap="round" stroke-linejoin="round"/>
</g>
</g>
</g>
</g>
</svg>
