<svg width="22" height="22" viewBox="0 0 22 22" fill="none" xmlns="http://www.w3.org/2000/svg">
<g opacity="0.5">
<path d="M14.6667 5.77501V5.50001C14.6667 3.47418 13.0258 1.83334 11 1.83334C8.97418 1.83334 7.33334 3.47418 7.33334 5.50001V10.0833" stroke="white" stroke-width="1.5" stroke-linecap="round" stroke-linejoin="round"/>
<path d="M8.28668 13.0075C8.95585 13.75 9.92752 14.2083 11 14.2083C13.0258 14.2083 14.6667 12.5675 14.6667 10.5417V10.0833" stroke="white" stroke-width="1.5" stroke-linecap="round" stroke-linejoin="round"/>
<path d="M6.215 15.5375C7.47083 16.7017 9.14833 17.4167 11 17.4167C14.8683 17.4167 18.0125 14.2725 18.0125 10.4042V8.84583" stroke="white" stroke-width="1.5" stroke-linecap="round" stroke-linejoin="round"/>
<path d="M3.98749 8.84583V10.4042C3.98749 11.3758 4.17999 12.2925 4.53749 13.1358" stroke="white" stroke-width="1.5" stroke-linecap="round" stroke-linejoin="round"/>
<path d="M18.3975 2.60333L3.60251 17.4075" stroke="white" stroke-width="1.5" stroke-linecap="round" stroke-linejoin="round"/>
<path d="M10.0833 2.75V5.5" stroke="white" stroke-width="1.5" stroke-linecap="round" stroke-linejoin="round"/>
<path d="M11 17.4167V20.1667" stroke="white" stroke-width="1.5" stroke-linecap="round" stroke-linejoin="round"/>
</g>
</svg>
