<svg width="22" height="22" viewBox="0 0 22 22" fill="none" xmlns="http://www.w3.org/2000/svg">
<g id="vuesax/linear/microphone-slash">
<g id="vuesax/linear/microphone-slash_2">
<g id="microphone-slash">
<path id="Vector" d="M14.6667 5.775V5.49999C14.6667 3.47416 13.0258 1.83333 11 1.83333C8.97416 1.83333 7.33333 3.47416 7.33333 5.49999V10.0833" stroke="#7F8384" stroke-width="1.5" stroke-linecap="round" stroke-linejoin="round"/>
<path id="Vector_2" d="M8.28667 13.0075C8.95583 13.75 9.9275 14.2083 11 14.2083C13.0258 14.2083 14.6667 12.5675 14.6667 10.5417V10.0833" stroke="#7F8384" stroke-width="1.5" stroke-linecap="round" stroke-linejoin="round"/>
<path id="Vector_3" d="M6.215 15.5375C7.47083 16.7017 9.14833 17.4167 11 17.4167C14.8683 17.4167 18.0125 14.2725 18.0125 10.4042V8.84583" stroke="#7F8384" stroke-width="1.5" stroke-linecap="round" stroke-linejoin="round"/>
<path id="Vector_4" d="M3.9875 8.84583V10.4042C3.9875 11.3758 4.18 12.2925 4.5375 13.1358" stroke="#7F8384" stroke-width="1.5" stroke-linecap="round" stroke-linejoin="round"/>
<path id="Vector_5" d="M18.3975 2.60333L3.60249 17.4075" stroke="#7F8384" stroke-width="1.5" stroke-linecap="round" stroke-linejoin="round"/>
<path id="Vector_6" d="M10.0833 2.75V5.5" stroke="#7F8384" stroke-width="1.5" stroke-linecap="round" stroke-linejoin="round"/>
<path id="Vector_7" d="M11 17.4167V20.1667" stroke="#7F8384" stroke-width="1.5" stroke-linecap="round" stroke-linejoin="round"/>
</g>
</g>
</g>
</svg>
