<svg width="20" height="26" viewBox="0 0 20 26" fill="none" xmlns="http://www.w3.org/2000/svg">
<g clip-path="url(#clip0_122_1974)">
<path d="M3.33333 0C1.49479 0 0 1.45742 0 3.25V22.75C0 24.5426 1.49479 26 3.33333 26H16.6667C18.5052 26 20 24.5426 20 22.75V8.125H13.3333C12.4115 8.125 11.6667 7.39883 11.6667 6.5V0H3.33333ZM13.3333 0V6.5H20L13.3333 0ZM3.33333 11.375H4.58333C6.19271 11.375 7.5 12.6496 7.5 14.2188C7.5 15.7879 6.19271 17.0625 4.58333 17.0625H4.16667V18.6875C4.16667 19.1344 3.79167 19.5 3.33333 19.5C2.875 19.5 2.5 19.1344 2.5 18.6875V12.1875C2.5 11.7406 2.875 11.375 3.33333 11.375ZM4.58333 15.4375C5.27604 15.4375 5.83333 14.8941 5.83333 14.2188C5.83333 13.5434 5.27604 13 4.58333 13H4.16667V15.4375H4.58333ZM8.33333 12.1875C8.33333 11.7406 8.70833 11.375 9.16667 11.375H10.4167C11.7969 11.375 12.9167 12.4668 12.9167 13.8125V17.0625C12.9167 18.4082 11.7969 19.5 10.4167 19.5H9.16667C8.70833 19.5 8.33333 19.1344 8.33333 18.6875V12.1875ZM10 17.875H10.4167C10.875 17.875 11.25 17.5094 11.25 17.0625V13.8125C11.25 13.3656 10.875 13 10.4167 13H10V17.875ZM15 11.375H17.5C17.9583 11.375 18.3333 11.7406 18.3333 12.1875C18.3333 12.6344 17.9583 13 17.5 13H15.8333V14.625H17.5C17.9583 14.625 18.3333 14.9906 18.3333 15.4375C18.3333 15.8844 17.9583 16.25 17.5 16.25H15.8333V18.6875C15.8333 19.1344 15.4583 19.5 15 19.5C14.5417 19.5 14.1667 19.1344 14.1667 18.6875V12.1875C14.1667 11.7406 14.5417 11.375 15 11.375Z" fill="#EE595C"/>
</g>
<defs>
<clipPath id="clip0_122_1974">
<rect width="20" height="26" fill="white"/>
</clipPath>
</defs>
</svg>
