<svg width="21" height="23" viewBox="0 0 21 23" fill="none" xmlns="http://www.w3.org/2000/svg">
<path d="M1 2.5C0.723858 2.5 0.5 2.72386 0.5 3C0.5 3.27614 0.723858 3.5 1 3.5L1 2.5ZM15.3333 3C15.3333 4.47276 16.5272 5.66667 18 5.66667C19.4728 5.66667 20.6667 4.47276 20.6667 3C20.6667 1.52724 19.4728 0.333335 18 0.333335C16.5272 0.333335 15.3333 1.52724 15.3333 3ZM1 3.5L18 3.5L18 2.5L1 2.5L1 3.5Z" fill="#7F8384" fill-opacity="0.15"/>
<path d="M1 19.5C0.723858 19.5 0.5 19.7239 0.5 20C0.5 20.2761 0.723858 20.5 1 20.5L1 19.5ZM15.3333 20C15.3333 21.4728 16.5272 22.6667 18 22.6667C19.4728 22.6667 20.6667 21.4728 20.6667 20C20.6667 18.5272 19.4728 17.3333 18 17.3333C16.5272 17.3333 15.3333 18.5272 15.3333 20ZM1 20.5L18 20.5L18 19.5L1 19.5L1 20.5Z" fill="#7F8384" fill-opacity="0.15"/>
</svg>
