<svg width="22" height="22" viewBox="0 0 22 22" fill="none" xmlns="http://www.w3.org/2000/svg">
<path d="M16.9583 17.875H13.2917" stroke="#7F8384" stroke-width="1.5" stroke-linecap="round" stroke-linejoin="round"/>
<path d="M15.125 19.7083V16.0417" stroke="#7F8384" stroke-width="1.5" stroke-linecap="round" stroke-linejoin="round"/>
<path d="M11.1467 9.96418C11.055 9.95501 10.945 9.95501 10.8442 9.96418C8.6625 9.89084 6.93 8.10334 6.93 5.90334C6.92083 3.65751 8.745 1.83334 10.9908 1.83334C13.2367 1.83334 15.0608 3.65751 15.0608 5.90334C15.0608 8.10334 13.3192 9.89084 11.1467 9.96418Z" stroke="#7F8384" stroke-width="1.5" stroke-linecap="round" stroke-linejoin="round"/>
<path d="M10.9908 19.9925C9.32251 19.9925 7.66334 19.5708 6.39834 18.7275C4.18001 17.2425 4.18001 14.8225 6.39834 13.3467C8.91917 11.66 13.0533 11.66 15.5742 13.3467" stroke="#7F8384" stroke-width="1.5" stroke-linecap="round" stroke-linejoin="round"/>
</svg>
