<svg width="15" height="15" viewBox="0 0 15 15" fill="none" xmlns="http://www.w3.org/2000/svg">
<path d="M8.51012 15C7.99991 15 7.63786 14.8079 7.42398 14.4236C7.20928 14.04 7.2448 13.6696 7.53051 13.3125L12.2755 7.5L7.53051 1.6875C7.2448 1.33036 7.20928 0.959643 7.42398 0.575357C7.63786 0.191786 7.99991 0 8.51012 0C8.73461 0 8.9387 0.0489287 9.12237 0.146786C9.30605 0.245357 9.45911 0.366071 9.58156 0.508928L14.7551 6.88393C14.8367 6.97321 14.898 7.07143 14.9388 7.17857C14.9796 7.28571 15 7.39286 15 7.5C15 7.60714 14.9796 7.70964 14.9388 7.8075C14.898 7.90607 14.8367 8.00893 14.7551 8.11607L9.58156 14.4911C9.45911 14.6339 9.30605 14.7546 9.12237 14.8532C8.9387 14.9511 8.73461 15 8.51012 15ZM1.22431 15C0.714095 15 0.35205 14.8079 0.138169 14.4236C-0.0765275 14.04 -0.0410164 13.6696 0.244702 13.3125L4.98966 7.5L0.244702 1.6875C-0.0410164 1.33036 -0.0765275 0.959643 0.138169 0.575357C0.35205 0.191786 0.714095 0 1.22431 0C1.4488 0 1.65288 0.0489287 1.83656 0.146786C2.02024 0.245357 2.1733 0.366071 2.29575 0.508928L7.46929 6.88393C7.55092 6.97321 7.61215 7.07143 7.65296 7.17857C7.69378 7.28571 7.71419 7.39286 7.71419 7.5C7.71419 7.60714 7.69378 7.71429 7.65296 7.82143C7.61215 7.92857 7.55092 8.02678 7.46929 8.11607L2.29575 14.4911C2.1733 14.6339 2.02024 14.7546 1.83656 14.8532C1.65288 14.9511 1.4488 15 1.22431 15Z" fill="white"/>
</svg>
