<svg width="26" height="26" viewBox="0 0 26 26" fill="none" xmlns="http://www.w3.org/2000/svg">
<path d="M10.8174 18.4536C10.5281 18.4536 10.2507 18.3385 10.0461 18.134C9.84143 17.9294 9.72656 17.652 9.72656 17.3626V2.09084C9.72656 1.70113 9.93457 1.341 10.2721 1.14614C10.6095 0.951285 11.0254 0.951285 11.3629 1.14614C11.7003 1.341 11.9083 1.70113 11.9083 2.09084V17.3626C11.9083 17.652 11.7933 17.9294 11.5888 18.134C11.3842 18.3385 11.1068 18.4536 10.8174 18.4536Z" fill="#2C2C2C" stroke="white" stroke-width="0.5"/>
<path d="M16.271 18.4536C15.9817 18.4536 15.7041 18.3385 15.4996 18.134C15.295 17.9294 15.1802 17.652 15.1802 17.3626V2.09084C15.1802 1.70113 15.388 1.341 15.7255 1.14614C16.063 0.951285 16.479 0.951285 16.8165 1.14614C17.154 1.341 17.3618 1.70113 17.3618 2.09084V17.3626C17.3618 17.652 17.2469 17.9294 17.0424 18.134C16.8378 18.3385 16.5603 18.4536 16.271 18.4536Z" fill="#2C2C2C" stroke="white" stroke-width="0.5"/>
<path d="M9.7926 10.8177H9.18175C7.42802 10.8177 5.80744 9.88216 4.93067 8.36331C4.05371 6.84464 4.05371 4.97329 4.93067 3.45444C5.80744 1.93577 7.42802 1 9.18175 1H20.6358C21.0255 1 21.3856 1.20801 21.5805 1.54549C21.7753 1.88298 21.7753 2.29879 21.5805 2.63629C21.3856 2.97378 21.0255 3.18178 20.6358 3.18178H9.18175C8.20746 3.18178 7.30712 3.70151 6.82007 4.54542C6.33283 5.38914 6.33283 6.42879 6.82007 7.27251C7.30712 8.11623 8.20746 8.63615 9.18175 8.63615H9.7926C10.1823 8.63615 10.5424 8.84397 10.7373 9.18145C10.9322 9.51893 10.9322 9.93494 10.7373 10.2724C10.5424 10.6099 10.1823 10.8177 9.7926 10.8177Z" fill="#2C2C2C" stroke="white" stroke-width="0.5"/>
<path d="M20.6345 25C20.3447 25.0016 20.066 24.8879 19.86 24.6835C19.6535 24.4788 19.5374 24.1999 19.5374 23.909C19.5374 23.6183 19.6535 23.3394 19.86 23.1346L22.3691 20.6365L19.86 18.1383C19.5834 17.8617 19.4753 17.4584 19.5766 17.0804C19.678 16.7024 19.9731 16.4073 20.3511 16.3059C20.7291 16.2046 21.1324 16.3127 21.409 16.5894L24.6816 19.8619C24.8882 20.0668 25.0043 20.3457 25.0043 20.6364C25.0043 20.9273 24.8881 21.2062 24.6816 21.4109L21.409 24.6835C21.2032 24.8878 20.9245 25.0016 20.6345 25Z" fill="#2C2C2C" stroke="white" stroke-width="0.5"/>
<path d="M23.9077 21.7277H2.09084C1.70113 21.7277 1.341 21.5197 1.14614 21.1822C0.951285 20.8447 0.951285 20.4289 1.14614 20.0914C1.341 19.7539 1.70113 19.5459 2.09084 19.5459H23.9077C24.2974 19.5459 24.6576 19.7539 24.8524 20.0914C25.0473 20.4289 25.0473 20.8447 24.8524 21.1822C24.6576 21.5197 24.2975 21.7277 23.9077 21.7277Z" fill="#2C2C2C" stroke="white" stroke-width="0.5"/>
</svg>
