<svg width="19" height="23" viewBox="0 0 19 23" fill="none" xmlns="http://www.w3.org/2000/svg">
<path d="M9.71657 1.3125H9.28345C6.91898 1.3125 5.0022 3.22928 5.0022 5.59375V11.4344C5.0022 13.7988 6.91898 15.7156 9.28345 15.7156H9.71657C12.081 15.7156 13.9978 13.7988 13.9978 11.4344V5.59375C13.9978 3.22928 12.081 1.3125 9.71657 1.3125Z" fill="white" stroke="#3467B8" stroke-width="2"/>
<mask id="path-2-outside-1_213_136" maskUnits="userSpaceOnUse" x="0.720215" y="8.05164" width="18" height="15" fill="black">
<rect fill="white" x="0.720215" y="8.05164" width="18" height="15"/>
<path d="M15.6235 10.0516C15.5373 10.0516 15.4519 10.0685 15.3723 10.1015C15.2926 10.1344 15.2203 10.1828 15.1593 10.2437C15.0984 10.3047 15.05 10.377 15.0171 10.4567C14.9841 10.5363 14.9672 10.6217 14.9672 10.7079C14.9672 12.1579 14.3912 13.5485 13.3659 14.5738C12.3406 15.5991 10.95 16.1751 9.49997 16.1751C8.04996 16.1751 6.65934 15.5991 5.63404 14.5738C4.60873 13.5485 4.03271 12.1579 4.03271 10.7079C4.03271 10.5338 3.96357 10.3669 3.8405 10.2438C3.71743 10.1208 3.55051 10.0516 3.37646 10.0516C3.20242 10.0516 3.0355 10.1208 2.91243 10.2438C2.78936 10.3669 2.72021 10.5338 2.72021 10.7079C2.72249 12.3916 3.35039 14.0143 4.48199 15.261C5.61359 16.5078 7.16812 17.2895 8.84372 17.4543V19.375H6.65643C6.48239 19.375 6.31547 19.4441 6.1924 19.5672C6.06933 19.6903 6.00018 19.8572 6.00018 20.0312C6.00018 20.2053 6.06933 20.3722 6.1924 20.4953C6.31547 20.6183 6.48239 20.6875 6.65643 20.6875H12.3435C12.5175 20.6875 12.6845 20.6183 12.8075 20.4953C12.9306 20.3722 12.9997 20.2053 12.9997 20.0312C12.9997 19.8572 12.9306 19.6903 12.8075 19.5672C12.6845 19.4441 12.5175 19.375 12.3435 19.375H10.1562V17.4543C11.8318 17.2895 13.3863 16.5078 14.5179 15.261C15.6495 14.0143 16.2774 12.3916 16.2797 10.7079C16.2798 10.6217 16.2628 10.5363 16.2299 10.4567C16.1969 10.377 16.1486 10.3047 16.0876 10.2437C16.0267 10.1828 15.9543 10.1344 15.8747 10.1015C15.795 10.0685 15.7097 10.0516 15.6235 10.0516Z"/>
</mask>
<path d="M15.6235 10.0516C15.5373 10.0516 15.4519 10.0685 15.3723 10.1015C15.2926 10.1344 15.2203 10.1828 15.1593 10.2437C15.0984 10.3047 15.05 10.377 15.0171 10.4567C14.9841 10.5363 14.9672 10.6217 14.9672 10.7079C14.9672 12.1579 14.3912 13.5485 13.3659 14.5738C12.3406 15.5991 10.95 16.1751 9.49997 16.1751C8.04996 16.1751 6.65934 15.5991 5.63404 14.5738C4.60873 13.5485 4.03271 12.1579 4.03271 10.7079C4.03271 10.5338 3.96357 10.3669 3.8405 10.2438C3.71743 10.1208 3.55051 10.0516 3.37646 10.0516C3.20242 10.0516 3.0355 10.1208 2.91243 10.2438C2.78936 10.3669 2.72021 10.5338 2.72021 10.7079C2.72249 12.3916 3.35039 14.0143 4.48199 15.261C5.61359 16.5078 7.16812 17.2895 8.84372 17.4543V19.375H6.65643C6.48239 19.375 6.31547 19.4441 6.1924 19.5672C6.06933 19.6903 6.00018 19.8572 6.00018 20.0312C6.00018 20.2053 6.06933 20.3722 6.1924 20.4953C6.31547 20.6183 6.48239 20.6875 6.65643 20.6875H12.3435C12.5175 20.6875 12.6845 20.6183 12.8075 20.4953C12.9306 20.3722 12.9997 20.2053 12.9997 20.0312C12.9997 19.8572 12.9306 19.6903 12.8075 19.5672C12.6845 19.4441 12.5175 19.375 12.3435 19.375H10.1562V17.4543C11.8318 17.2895 13.3863 16.5078 14.5179 15.261C15.6495 14.0143 16.2774 12.3916 16.2797 10.7079C16.2798 10.6217 16.2628 10.5363 16.2299 10.4567C16.1969 10.377 16.1486 10.3047 16.0876 10.2437C16.0267 10.1828 15.9543 10.1344 15.8747 10.1015C15.795 10.0685 15.7097 10.0516 15.6235 10.0516Z" fill="white"/>
<path d="M15.6235 10.0516L15.6223 12.0516L15.6246 12.0516L15.6235 10.0516ZM14.9672 10.7079L16.9672 10.7079L16.9672 10.7067L14.9672 10.7079ZM4.03271 10.7079H2.03271V10.7079L4.03271 10.7079ZM2.72021 10.7079H0.720213L0.720217 10.7106L2.72021 10.7079ZM8.84372 17.4543H10.8437V15.6415L9.03957 15.4639L8.84372 17.4543ZM8.84372 19.375V21.375H10.8437V19.375H8.84372ZM10.1562 19.375H8.15622V21.375H10.1562V19.375ZM10.1562 17.4543L9.96036 15.4639L8.15622 15.6415V17.4543H10.1562ZM16.2797 10.7079L18.2797 10.7106L18.2797 10.709L16.2797 10.7079ZM15.6246 8.05164C15.2756 8.05143 14.9299 8.12003 14.6074 8.25351L16.1371 11.9495C15.9739 12.017 15.7989 12.0517 15.6223 12.0516L15.6246 8.05164ZM14.6074 8.25351C14.2849 8.38698 13.9919 8.58271 13.7451 8.82952L16.5735 11.6579C16.4486 11.7829 16.3003 11.8819 16.1371 11.9495L14.6074 8.25351ZM13.7451 8.82952C13.4983 9.07632 13.3026 9.36935 13.1691 9.69186L16.865 11.2215C16.7975 11.3847 16.6984 11.533 16.5735 11.6579L13.7451 8.82952ZM13.1691 9.69186C13.0356 10.0144 12.967 10.36 12.9672 10.709L16.9672 10.7067C16.9673 10.8833 16.9326 11.0583 16.865 11.2215L13.1691 9.69186ZM12.9672 10.7079C12.9672 11.6275 12.6019 12.5094 11.9517 13.1596L14.7801 15.988C16.1805 14.5876 16.9672 12.6883 16.9672 10.7079L12.9672 10.7079ZM11.9517 13.1596C11.3014 13.8098 10.4195 14.1751 9.49997 14.1751V18.1751C11.4804 18.1751 13.3797 17.3884 14.7801 15.988L11.9517 13.1596ZM9.49997 14.1751C8.58039 14.1751 7.69848 13.8098 7.04825 13.1596L4.21982 15.988C5.6202 17.3884 7.51953 18.1751 9.49997 18.1751V14.1751ZM7.04825 13.1596C6.39801 12.5094 6.03271 11.6275 6.03271 10.7079L2.03271 10.7079C2.03271 12.6883 2.81944 14.5876 4.21982 15.988L7.04825 13.1596ZM6.03271 10.7079C6.03271 10.0034 5.75286 9.32778 5.25472 8.82963L2.42629 11.6581C2.17429 11.4061 2.03271 11.0643 2.03271 10.7079H6.03271ZM5.25472 8.82963C4.75657 8.33149 4.08095 8.05164 3.37646 8.05164V12.0516C3.02008 12.0516 2.67829 11.9101 2.42629 11.6581L5.25472 8.82963ZM3.37646 8.05164C2.67198 8.05164 1.99636 8.33149 1.49821 8.82963L4.32664 11.6581C4.07464 11.9101 3.73285 12.0516 3.37646 12.0516V8.05164ZM1.49821 8.82963C1.00007 9.32778 0.720215 10.0034 0.720215 10.7079H4.72021C4.72021 11.0643 4.57864 11.4061 4.32664 11.6581L1.49821 8.82963ZM0.720217 10.7106C0.723163 12.8903 1.53606 14.9912 3.00106 16.6052L5.96292 13.9169C5.16472 13.0375 4.72182 11.8928 4.72021 10.7052L0.720217 10.7106ZM3.00106 16.6052C4.46605 18.2193 6.47859 19.2313 8.64786 19.4447L9.03957 15.4639C7.85765 15.3476 6.76112 14.7963 5.96292 13.9169L3.00106 16.6052ZM6.84372 17.4543V19.375H10.8437V17.4543H6.84372ZM8.84372 17.375H6.65643V21.375H8.84372V17.375ZM6.65643 17.375C5.95196 17.375 5.27633 17.6548 4.77818 18.153L7.60661 20.9814C7.35461 21.2334 7.01282 21.375 6.65643 21.375V17.375ZM4.77818 18.153C4.28004 18.6511 4.00018 19.3267 4.00018 20.0312H8.00018C8.00018 20.3876 7.85861 20.7294 7.60661 20.9814L4.77818 18.153ZM4.00018 20.0312C4.00018 20.7357 4.28004 21.4113 4.77818 21.9095L7.60661 19.0811C7.85861 19.3331 8.00018 19.6748 8.00018 20.0312H4.00018ZM4.77818 21.9095C5.27632 22.4076 5.95195 22.6875 6.65643 22.6875V18.6875C7.01282 18.6875 7.35461 18.8291 7.60661 19.0811L4.77818 21.9095ZM6.65643 22.6875H12.3435V18.6875H6.65643V22.6875ZM12.3435 22.6875C13.048 22.6875 13.7236 22.4076 14.2217 21.9095L11.3933 19.0811C11.6453 18.8291 11.9871 18.6875 12.3435 18.6875V22.6875ZM14.2217 21.9095C14.7199 21.4113 14.9997 20.7357 14.9997 20.0312H10.9997C10.9997 19.6749 11.1413 19.3331 11.3933 19.0811L14.2217 21.9095ZM14.9997 20.0312C14.9997 19.3268 14.7199 18.6511 14.2217 18.153L11.3933 20.9814C11.1413 20.7294 10.9997 20.3876 10.9997 20.0312H14.9997ZM14.2217 18.153C13.7236 17.6548 13.048 17.375 12.3435 17.375V21.375C11.9871 21.375 11.6453 21.2334 11.3933 20.9814L14.2217 18.153ZM12.3435 17.375H10.1562V21.375H12.3435V17.375ZM12.1562 19.375V17.4543H8.15622V19.375H12.1562ZM10.3521 19.4447C12.5213 19.2313 14.5339 18.2193 15.9989 16.6052L13.037 13.9169C12.2388 14.7963 11.1423 15.3476 9.96036 15.4639L10.3521 19.4447ZM15.9989 16.6052C17.4639 14.9912 18.2768 12.8903 18.2797 10.7106L14.2797 10.7052C14.2781 11.8928 13.8352 13.0375 13.037 13.9169L15.9989 16.6052ZM18.2797 10.709C18.2799 10.36 18.2113 10.0144 18.0778 9.69186L14.3819 11.2215C14.3143 11.0583 14.2796 10.8834 14.2797 10.7067L18.2797 10.709ZM18.0778 9.69186C17.9444 9.36935 17.7486 9.07632 17.5018 8.82952L14.6734 11.6579C14.5485 11.533 14.4494 11.3847 14.3819 11.2215L18.0778 9.69186ZM17.5018 8.82952C17.255 8.58271 16.962 8.38698 16.6395 8.25351L15.1098 11.9495C14.9466 11.8819 14.7983 11.7829 14.6734 11.6579L17.5018 8.82952ZM16.6395 8.25351C16.317 8.12003 15.9713 8.05143 15.6223 8.05164L15.6246 12.0516C15.448 12.0517 15.273 12.017 15.1098 11.9495L16.6395 8.25351Z" fill="#3467B8" mask="url(#path-2-outside-1_213_136)"/>
</svg>
