<svg width="19" height="23" viewBox="0 0 19 23" fill="none" xmlns="http://www.w3.org/2000/svg">
<path d="M9.28343 1.3125H9.71655C12.081 1.3125 13.9978 3.22928 13.9978 5.59375V11.4344C13.9978 13.7988 12.081 15.7156 9.71655 15.7156H9.28343C6.91896 15.7156 5.00218 13.7988 5.00218 11.4344V5.59375C5.00218 3.22928 6.91896 1.3125 9.28343 1.3125Z" fill="#3467B8" stroke="white" stroke-width="2"/>
<mask id="path-2-outside-1_213_325" maskUnits="userSpaceOnUse" x="0.279785" y="8.05164" width="18" height="15" fill="black">
<rect fill="white" x="0.279785" y="8.05164" width="18" height="15"/>
<path d="M3.37653 10.0516C3.46273 10.0516 3.54809 10.0685 3.62773 10.1015C3.70737 10.1344 3.77974 10.1828 3.84068 10.2437C3.90163 10.3047 3.94997 10.377 3.98293 10.4567C4.01589 10.5363 4.03283 10.6217 4.03278 10.7079C4.03278 12.1579 4.6088 13.5485 5.6341 14.5738C6.65941 15.5991 8.05003 16.1751 9.50003 16.1751C10.95 16.1751 12.3407 15.5991 13.366 14.5738C14.3913 13.5485 14.9673 12.1579 14.9673 10.7079C14.9673 10.5338 15.0364 10.3669 15.1595 10.2438C15.2826 10.1208 15.4495 10.0516 15.6235 10.0516C15.7976 10.0516 15.9645 10.1208 16.0876 10.2438C16.2106 10.3669 16.2798 10.5338 16.2798 10.7079C16.2775 12.3916 15.6496 14.0143 14.518 15.261C13.3864 16.5078 11.8319 17.2895 10.1563 17.4543V19.375H12.3436C12.5176 19.375 12.6845 19.4441 12.8076 19.5672C12.9307 19.6903 12.9998 19.8572 12.9998 20.0312C12.9998 20.2053 12.9307 20.3722 12.8076 20.4953C12.6845 20.6183 12.5176 20.6875 12.3436 20.6875H6.6565C6.48246 20.6875 6.31553 20.6183 6.19246 20.4953C6.06939 20.3722 6.00025 20.2053 6.00025 20.0312C6.00025 19.8572 6.06939 19.6903 6.19246 19.5672C6.31553 19.4441 6.48246 19.375 6.6565 19.375H8.84378V17.4543C7.16819 17.2895 5.61366 16.5078 4.48206 15.261C3.35046 14.0143 2.72256 12.3916 2.72028 10.7079C2.72023 10.6217 2.73717 10.5363 2.77013 10.4567C2.8031 10.377 2.85143 10.3047 2.91238 10.2437C2.97333 10.1828 3.0457 10.1344 3.12534 10.1015C3.20498 10.0685 3.29034 10.0516 3.37653 10.0516Z"/>
</mask>
<path d="M3.37653 10.0516C3.46273 10.0516 3.54809 10.0685 3.62773 10.1015C3.70737 10.1344 3.77974 10.1828 3.84068 10.2437C3.90163 10.3047 3.94997 10.377 3.98293 10.4567C4.01589 10.5363 4.03283 10.6217 4.03278 10.7079C4.03278 12.1579 4.6088 13.5485 5.6341 14.5738C6.65941 15.5991 8.05003 16.1751 9.50003 16.1751C10.95 16.1751 12.3407 15.5991 13.366 14.5738C14.3913 13.5485 14.9673 12.1579 14.9673 10.7079C14.9673 10.5338 15.0364 10.3669 15.1595 10.2438C15.2826 10.1208 15.4495 10.0516 15.6235 10.0516C15.7976 10.0516 15.9645 10.1208 16.0876 10.2438C16.2106 10.3669 16.2798 10.5338 16.2798 10.7079C16.2775 12.3916 15.6496 14.0143 14.518 15.261C13.3864 16.5078 11.8319 17.2895 10.1563 17.4543V19.375H12.3436C12.5176 19.375 12.6845 19.4441 12.8076 19.5672C12.9307 19.6903 12.9998 19.8572 12.9998 20.0312C12.9998 20.2053 12.9307 20.3722 12.8076 20.4953C12.6845 20.6183 12.5176 20.6875 12.3436 20.6875H6.6565C6.48246 20.6875 6.31553 20.6183 6.19246 20.4953C6.06939 20.3722 6.00025 20.2053 6.00025 20.0312C6.00025 19.8572 6.06939 19.6903 6.19246 19.5672C6.31553 19.4441 6.48246 19.375 6.6565 19.375H8.84378V17.4543C7.16819 17.2895 5.61366 16.5078 4.48206 15.261C3.35046 14.0143 2.72256 12.3916 2.72028 10.7079C2.72023 10.6217 2.73717 10.5363 2.77013 10.4567C2.8031 10.377 2.85143 10.3047 2.91238 10.2437C2.97333 10.1828 3.0457 10.1344 3.12534 10.1015C3.20498 10.0685 3.29034 10.0516 3.37653 10.0516Z" fill="#3467B8"/>
<path d="M3.37653 10.0516L3.37769 12.0516L3.37537 12.0516L3.37653 10.0516ZM4.03278 10.7079L2.03278 10.7079L2.03278 10.7067L4.03278 10.7079ZM14.9673 10.7079H16.9673V10.7079L14.9673 10.7079ZM16.2798 10.7079H18.2798L18.2798 10.7106L16.2798 10.7079ZM10.1563 17.4543H8.15628V15.6415L9.96043 15.4639L10.1563 17.4543ZM10.1563 19.375V21.375H8.15628V19.375H10.1563ZM8.84378 19.375H10.8438V21.375H8.84378V19.375ZM8.84378 17.4543L9.03964 15.4639L10.8438 15.6415V17.4543H8.84378ZM2.72028 10.7079L0.720284 10.7106L0.720283 10.709L2.72028 10.7079ZM3.37537 8.05164C3.7244 8.05143 4.07005 8.12003 4.39256 8.25351L2.8629 11.9495C3.02612 12.017 3.20105 12.0517 3.37769 12.0516L3.37537 8.05164ZM4.39256 8.25351C4.71505 8.38698 5.00809 8.58271 5.2549 8.82952L2.42647 11.6579C2.55138 11.7829 2.69969 11.8819 2.8629 11.9495L4.39256 8.25351ZM5.2549 8.82952C5.5017 9.07632 5.69744 9.36935 5.83091 9.69186L2.13495 11.2215C2.2025 11.3847 2.30157 11.533 2.42647 11.6579L5.2549 8.82952ZM5.83091 9.69186C5.9644 10.0144 6.03298 10.36 6.03278 10.709L2.03278 10.7067C2.03268 10.8833 2.06739 11.0583 2.13495 11.2215L5.83091 9.69186ZM6.03278 10.7079C6.03278 11.6275 6.39808 12.5094 7.04832 13.1596L4.21989 15.988C2.81951 14.5876 2.03278 12.6883 2.03278 10.7079L6.03278 10.7079ZM7.04832 13.1596C7.69855 13.8098 8.58046 14.1751 9.50003 14.1751V18.1751C7.5196 18.1751 5.62027 17.3884 4.21989 15.988L7.04832 13.1596ZM9.50003 14.1751C10.4196 14.1751 11.3015 13.8098 11.9518 13.1596L14.7802 15.988C13.3798 17.3884 11.4805 18.1751 9.50003 18.1751V14.1751ZM11.9518 13.1596C12.602 12.5094 12.9673 11.6275 12.9673 10.7079L16.9673 10.7079C16.9673 12.6883 16.1806 14.5876 14.7802 15.988L11.9518 13.1596ZM12.9673 10.7079C12.9673 10.0034 13.2471 9.32778 13.7453 8.82963L16.5737 11.6581C16.8257 11.4061 16.9673 11.0643 16.9673 10.7079H12.9673ZM13.7453 8.82963C14.2434 8.33149 14.9191 8.05164 15.6235 8.05164V12.0516C15.9799 12.0516 16.3217 11.9101 16.5737 11.6581L13.7453 8.82963ZM15.6235 8.05164C16.328 8.05164 17.0036 8.33149 17.5018 8.82963L14.6734 11.6581C14.9254 11.9101 15.2672 12.0516 15.6235 12.0516V8.05164ZM17.5018 8.82963C17.9999 9.32778 18.2798 10.0034 18.2798 10.7079H14.2798C14.2798 11.0643 14.4214 11.4061 14.6734 11.6581L17.5018 8.82963ZM18.2798 10.7106C18.2768 12.8903 17.4639 14.9912 15.9989 16.6052L13.0371 13.9169C13.8353 13.0375 14.2782 11.8928 14.2798 10.7052L18.2798 10.7106ZM15.9989 16.6052C14.5339 18.2193 12.5214 19.2313 10.3521 19.4447L9.96043 15.4639C11.1424 15.3476 12.2389 14.7963 13.0371 13.9169L15.9989 16.6052ZM12.1563 17.4543V19.375H8.15628V17.4543H12.1563ZM10.1563 17.375H12.3436V21.375H10.1563V17.375ZM12.3436 17.375C13.048 17.375 13.7237 17.6548 14.2218 18.153L11.3934 20.9814C11.6454 21.2334 11.9872 21.375 12.3436 21.375V17.375ZM14.2218 18.153C14.72 18.6511 14.9998 19.3267 14.9998 20.0312H10.9998C10.9998 20.3876 11.1414 20.7294 11.3934 20.9814L14.2218 18.153ZM14.9998 20.0312C14.9998 20.7357 14.72 21.4113 14.2218 21.9095L11.3934 19.0811C11.1414 19.3331 10.9998 19.6748 10.9998 20.0312H14.9998ZM14.2218 21.9095C13.7237 22.4076 13.048 22.6875 12.3436 22.6875V18.6875C11.9872 18.6875 11.6454 18.8291 11.3934 19.0811L14.2218 21.9095ZM12.3436 22.6875H6.6565V18.6875H12.3436V22.6875ZM6.6565 22.6875C5.95202 22.6875 5.27639 22.4076 4.77825 21.9095L7.60668 19.0811C7.35468 18.8291 7.01289 18.6875 6.6565 18.6875V22.6875ZM4.77825 21.9095C4.2801 21.4113 4.00025 20.7357 4.00025 20.0312H8.00025C8.00025 19.6749 7.85868 19.3331 7.60668 19.0811L4.77825 21.9095ZM4.00025 20.0312C4.00025 19.3268 4.2801 18.6511 4.77825 18.153L7.60668 20.9814C7.85868 20.7294 8.00025 20.3876 8.00025 20.0312H4.00025ZM4.77825 18.153C5.2764 17.6548 5.95203 17.375 6.6565 17.375V21.375C7.01288 21.375 7.35467 21.2334 7.60668 20.9814L4.77825 18.153ZM6.6565 17.375H8.84378V21.375H6.6565V17.375ZM6.84378 19.375V17.4543H10.8438V19.375H6.84378ZM8.64793 19.4447C6.47866 19.2313 4.46612 18.2193 3.00113 16.6052L5.96299 13.9169C6.76119 14.7963 7.85771 15.3476 9.03964 15.4639L8.64793 19.4447ZM3.00113 16.6052C1.53613 14.9912 0.72323 12.8903 0.720284 10.7106L4.72028 10.7052C4.72189 11.8928 5.16479 13.0375 5.96299 13.9169L3.00113 16.6052ZM0.720283 10.709C0.720079 10.36 0.788681 10.0144 0.922153 9.69186L4.61812 11.2215C4.68567 11.0583 4.72038 10.8834 4.72028 10.7067L0.720283 10.709ZM0.922153 9.69186C1.05563 9.36935 1.25137 9.07632 1.49817 8.82952L4.3266 11.6579C4.4515 11.533 4.55056 11.3847 4.61812 11.2215L0.922153 9.69186ZM1.49817 8.82952C1.74498 8.58271 2.03802 8.38698 2.36051 8.25351L3.89017 11.9495C4.05338 11.8819 4.20168 11.7829 4.3266 11.6579L1.49817 8.82952ZM2.36051 8.25351C2.68301 8.12003 3.02866 8.05143 3.37769 8.05164L3.37537 12.0516C3.55202 12.0517 3.72695 12.017 3.89017 11.9495L2.36051 8.25351Z" fill="white" mask="url(#path-2-outside-1_213_325)"/>
</svg>
