<svg width="106" height="106" viewBox="0 0 106 106" fill="none" xmlns="http://www.w3.org/2000/svg">
<g clip-path="url(#clip0_702_4681)">
<path d="M53 106C82.2711 106 106 82.2711 106 53C106 23.7289 82.2711 0 53 0C23.7289 0 0 23.7289 0 53C0 82.2711 23.7289 106 53 106Z" fill="white"/>
<path fill-rule="evenodd" clip-rule="evenodd" d="M53.9275 77.2641C56.2584 77.1021 58.5693 76.7251 60.8308 76.1378C63.6216 76.9895 66.5719 77.1822 69.4499 76.7009C69.5638 76.6826 69.679 76.6737 69.7944 76.6744C70.8212 76.6744 72.1694 77.2707 74.1337 78.5294V76.4591C74.1342 76.1009 74.2298 75.7493 74.4108 75.4402C74.5918 75.1312 74.8517 74.8758 75.1639 74.7002C76.0186 74.2166 76.8136 73.6601 77.539 73.0473C80.401 70.6225 82.0175 67.3895 82.0175 63.9644C82.0175 62.8149 81.8353 61.6986 81.4908 60.632C82.3554 59.0188 83.0543 57.3228 83.5678 55.5639C85.2278 58.0516 86.1173 60.9736 86.125 63.9644C86.125 68.6184 83.9586 72.9578 80.2122 76.1312C79.5869 76.6604 78.9286 77.1495 78.2413 77.5953V82.4349C78.2413 84.1011 76.32 85.0584 74.9652 84.0679C73.6841 83.1102 72.3575 82.2148 70.9902 81.3848C70.5986 81.1505 70.1913 80.9435 69.7712 80.7654C68.6449 80.9343 67.4922 81.0204 66.3295 81.0204C61.6523 81.0204 57.3294 79.6193 53.9275 77.2641ZM29.1964 67.5849C23.2869 62.5731 19.875 55.7461 19.875 48.4287C19.875 33.4794 33.9796 21.5312 51.2013 21.5312C68.4263 21.5312 82.5309 33.4794 82.5309 48.4287C82.5309 63.3814 68.423 75.3296 51.2013 75.3296C49.2668 75.3296 47.3522 75.1805 45.4773 74.8824C44.6658 75.0745 41.4228 77.0024 36.7489 80.4142C35.0562 81.6531 32.6546 80.4573 32.6546 78.3737V70.119C31.4442 69.3559 30.2887 68.5092 29.1964 67.5849ZM45.5899 69.7911C45.7324 69.7911 45.8781 69.801 46.0206 69.8242C47.7099 70.1091 49.4457 70.2548 51.2013 70.2548C65.7498 70.2548 77.3933 60.3902 77.3933 48.4287C77.3933 36.4706 65.7498 26.606 51.2013 26.606C36.6594 26.606 25.0094 36.4706 25.0094 48.4287C25.0094 54.2124 27.7289 59.6581 32.5387 63.7325C33.7477 64.7527 35.0761 65.6803 36.5004 66.4885C37.2988 66.939 37.7923 67.7804 37.7923 68.688V73.4481C41.4891 70.967 43.9204 69.7911 45.5899 69.7911ZM37.8486 53.5068C35.5796 53.5068 33.7411 51.6849 33.7411 49.4457C33.7411 47.2031 35.5796 45.3846 37.8486 45.3846C40.1177 45.3846 41.9561 47.2031 41.9561 49.4457C41.9561 51.6883 40.1177 53.5068 37.8486 53.5068ZM51.2013 53.5068C48.9322 53.5068 47.0938 51.6849 47.0938 49.4457C47.0938 47.2031 48.9322 45.3846 51.2013 45.3846C53.4704 45.3846 55.3088 47.2031 55.3088 49.4457C55.3088 51.6883 53.4704 53.5068 51.2013 53.5068ZM64.554 53.5068C62.2849 53.5068 60.4465 51.6849 60.4465 49.4457C60.4465 47.2031 62.2849 45.3846 64.554 45.3846C66.8231 45.3846 68.6615 47.2031 68.6615 49.4457C68.6615 51.6883 66.8231 53.5068 64.554 53.5068Z" fill="#01AA85"/>
</g>
<defs>
<clipPath id="clip0_702_4681">
<rect width="106" height="106" fill="white"/>
</clipPath>
</defs>
</svg>
