<svg width="20" height="20" viewBox="0 0 20 20" fill="none" xmlns="http://www.w3.org/2000/svg">
<path d="M13.6832 6.6251C15.7165 8.65843 15.7165 11.9584 13.6832 13.9918C11.6498 16.0251 8.34984 16.0251 6.3165 13.9918C4.28317 11.9584 4.28317 8.65843 6.3165 6.6251C8.34984 4.59176 11.6498 4.59176 13.6832 6.6251Z" fill="#3164BD"/>
<path d="M6.87486 18.6583C6.79986 18.6583 6.71653 18.6416 6.64153 18.6166C4.76653 17.8666 3.24986 16.5416 2.2332 14.7916C1.24986 13.0833 0.858196 11.15 1.11653 9.1833C1.1582 8.84163 1.4832 8.59997 1.81653 8.64163C2.1582 8.6833 2.39986 8.99997 2.3582 9.34163C2.14153 11.0333 2.47486 12.7 3.31653 14.1666C4.1832 15.6666 5.49153 16.8083 7.09986 17.45C7.41653 17.5833 7.57486 17.9416 7.44986 18.2666C7.3582 18.5083 7.11653 18.6583 6.87486 18.6583Z" fill="#3164BD"/>
<path d="M4.87517 4.35822C4.69184 4.35822 4.5085 4.27489 4.3835 4.11655C4.16684 3.84989 4.21684 3.45822 4.49184 3.24155C6.07517 1.99989 7.9835 1.34155 10.0002 1.34155C11.9668 1.34155 13.8418 1.97489 15.4168 3.17489C15.6918 3.38322 15.7418 3.77489 15.5335 4.04989C15.3252 4.32489 14.9335 4.37489 14.6585 4.16655C13.3002 3.13322 11.6918 2.59155 10.0002 2.59155C8.26684 2.59155 6.62517 3.15822 5.2585 4.22489C5.14184 4.31655 5.0085 4.35822 4.87517 4.35822Z" fill="#3164BD"/>
<path d="M13.1248 18.6583C12.8748 18.6583 12.6414 18.5083 12.5414 18.2666C12.4164 17.9499 12.5664 17.5833 12.8914 17.4499C14.4998 16.7999 15.8081 15.6666 16.6748 14.1666C17.5248 12.6999 17.8581 11.0333 17.6331 9.34994C17.5914 9.00827 17.8331 8.6916 18.1748 8.64993C18.5081 8.60827 18.8331 8.84993 18.8748 9.1916C19.1248 11.1499 18.7414 13.0916 17.7581 14.7999C16.7498 16.5499 15.2248 17.8666 13.3498 18.6249C13.2831 18.6416 13.2081 18.6583 13.1248 18.6583Z" fill="#3164BD"/>
</svg>
