<svg width="20" height="20" viewBox="0 0 20 20" fill="none" xmlns="http://www.w3.org/2000/svg">
<path d="M9.99996 16.1416C8.50829 16.1416 7.01662 15.575 5.87495 14.4333C3.59995 12.1583 3.59995 8.4583 5.87495 6.1833C8.14995 3.9083 11.85 3.9083 14.125 6.1833C16.4 8.4583 16.4 12.1583 14.125 14.4333C12.9833 15.575 11.4916 16.1416 9.99996 16.1416ZM9.99996 5.72498C8.82496 5.72498 7.64995 6.17497 6.75828 7.06663C4.97495 8.8583 4.97495 11.7583 6.75828 13.55C8.54995 15.3417 11.4583 15.3333 13.2416 13.55C15.025 11.7583 15.025 8.8583 13.2416 7.06663C12.35 6.17497 11.175 5.72498 9.99996 5.72498Z" fill="#999EA6"/>
<path d="M6.87511 18.6583C6.80011 18.6583 6.71678 18.6417 6.64178 18.6167C4.76678 17.8667 3.2501 16.5416 2.23344 14.7916C1.2501 13.0833 0.858441 11.15 1.11677 9.18332C1.15844 8.84165 1.4751 8.59997 1.81677 8.64163C2.15844 8.6833 2.4001 8.99999 2.35843 9.34166C2.14177 11.025 2.47512 12.6916 3.31679 14.1583C4.18345 15.6583 5.49177 16.8 7.1001 17.4416C7.41677 17.575 7.57511 17.9333 7.45011 18.2583C7.35845 18.5083 7.11678 18.6583 6.87511 18.6583Z" fill="#999EA6"/>
<path d="M4.87516 4.35822C4.69183 4.35822 4.5085 4.2749 4.3835 4.11657C4.16683 3.84157 4.21684 3.44991 4.49184 3.24158C6.0835 1.99991 7.98349 1.34155 10.0002 1.34155C11.9668 1.34155 13.8418 1.9749 15.4168 3.1749C15.6918 3.38323 15.7418 3.77489 15.5335 4.04989C15.3252 4.32489 14.9335 4.3749 14.6585 4.16656C13.3085 3.13323 11.7002 2.59155 10.0002 2.59155C8.26683 2.59155 6.62516 3.15824 5.25849 4.2249C5.14182 4.31657 5.0085 4.35822 4.87516 4.35822Z" fill="#999EA6"/>
<path d="M13.1253 18.6583C12.8753 18.6583 12.6419 18.5082 12.5419 18.2666C12.4169 17.9499 12.5669 17.5833 12.8919 17.4499C14.5003 16.7999 15.8086 15.6666 16.6753 14.1666C17.5253 12.6999 17.8586 11.0332 17.6336 9.34991C17.5919 9.00824 17.8336 8.6916 18.1753 8.64993C18.5086 8.60827 18.8336 8.84995 18.8753 9.19162C19.1253 11.15 18.7419 13.0916 17.7586 14.7999C16.7503 16.5499 15.2252 17.8666 13.3502 18.6249C13.2836 18.6416 13.2086 18.6583 13.1253 18.6583Z" fill="#999EA6"/>
</svg>
