<svg width="20" height="20" viewBox="0 0 20 20" fill="none" xmlns="http://www.w3.org/2000/svg">
<path d="M17.5 4.98332C14.725 4.70832 11.9333 4.56665 9.15 4.56665C7.5 4.56665 5.85 4.64998 4.2 4.81665L2.5 4.98332" stroke="#2C2C2C" stroke-linecap="round" stroke-linejoin="round"/>
<path d="M7.08398 4.14175L7.26732 3.05008C7.40065 2.25841 7.50065 1.66675 8.90898 1.66675H11.0923C12.5007 1.66675 12.609 2.29175 12.734 3.05841L12.9173 4.14175" stroke="#2C2C2C" stroke-linecap="round" stroke-linejoin="round"/>
<path d="M15.7077 7.6167L15.166 16.0084C15.0743 17.3167 14.9993 18.3334 12.6743 18.3334H7.32435C4.99935 18.3334 4.92435 17.3167 4.83268 16.0084L4.29102 7.6167" stroke="#2C2C2C" stroke-linecap="round" stroke-linejoin="round"/>
<path d="M8.60742 13.75H11.3824" stroke="#2C2C2C" stroke-linecap="round" stroke-linejoin="round"/>
<path d="M7.91602 10.4167H12.0827" stroke="#2C2C2C" stroke-linecap="round" stroke-linejoin="round"/>
</svg>
