<svg width="22" height="22" viewBox="0 0 22 22" fill="none" xmlns="http://www.w3.org/2000/svg">
<path d="M11.4858 18.7183H5.69251C2.79584 18.7183 1.83334 16.7933 1.83334 14.8592V7.14083C1.83334 4.24416 2.79584 3.28166 5.69251 3.28166H11.4858C14.3825 3.28166 15.345 4.24416 15.345 7.14083V14.8592C15.345 17.7558 14.3733 18.7183 11.4858 18.7183Z" stroke="#7F8384" stroke-width="1.5" stroke-linecap="round" stroke-linejoin="round"/>
<path d="M17.8933 15.675L15.345 13.8875V8.10333L17.8933 6.31583C19.14 5.445 20.1667 5.97667 20.1667 7.5075V14.4925C20.1667 16.0233 19.14 16.555 17.8933 15.675Z" stroke="#7F8384" stroke-width="1.5" stroke-linecap="round" stroke-linejoin="round"/>
<path d="M10.5417 10.0833C11.301 10.0833 11.9167 9.46772 11.9167 8.70833C11.9167 7.94894 11.301 7.33333 10.5417 7.33333C9.78226 7.33333 9.16666 7.94894 9.16666 8.70833C9.16666 9.46772 9.78226 10.0833 10.5417 10.0833Z" stroke="#7F8384" stroke-width="1.5" stroke-linecap="round" stroke-linejoin="round"/>
</svg>
