<svg width="22" height="22" viewBox="0 0 22 22" fill="none" xmlns="http://www.w3.org/2000/svg">
<path d="M11.4858 18.7179H5.69242C2.79575 18.7179 1.83325 16.7929 1.83325 14.8587V7.14042C1.83325 4.24375 2.79575 3.28125 5.69242 3.28125H11.4858C14.3824 3.28125 15.3449 4.24375 15.3449 7.14042V14.8587C15.3449 17.7554 14.3733 18.7179 11.4858 18.7179Z" stroke="#2C2C2C" stroke-linecap="round" stroke-linejoin="round"/>
<path d="M17.8933 15.6751L15.345 13.8876V8.10345L17.8933 6.31595C19.14 5.44512 20.1666 5.97679 20.1666 7.50762V14.4926C20.1666 16.0235 19.14 16.5551 17.8933 15.6751Z" stroke="#2C2C2C" stroke-linecap="round" stroke-linejoin="round"/>
<path d="M10.5417 10.083C11.3011 10.083 11.9167 9.4674 11.9167 8.70801C11.9167 7.94862 11.3011 7.33301 10.5417 7.33301C9.78236 7.33301 9.16675 7.94862 9.16675 8.70801C9.16675 9.4674 9.78236 10.083 10.5417 10.083Z" stroke="#2C2C2C" stroke-linecap="round" stroke-linejoin="round"/>
</svg>
