<svg width="22" height="22" viewBox="0 0 22 22" fill="none" xmlns="http://www.w3.org/2000/svg">
<g id="vuesax/linear/volume-high">
<g id="vuesax/linear/volume-high_2">
<g id="volume-high">
<path id="Vector" d="M1.83334 9.16668V12.8333C1.83334 14.6667 2.75001 15.5833 4.58334 15.5833H5.89418C6.23334 15.5833 6.57251 15.6842 6.86584 15.8583L9.54251 17.5358C11.8525 18.9842 13.75 17.93 13.75 15.2075V6.79251C13.75 4.06084 11.8525 3.01584 9.54251 4.46418L6.86584 6.14168C6.57251 6.31584 6.23334 6.41668 5.89418 6.41668H4.58334C2.75001 6.41668 1.83334 7.33334 1.83334 9.16668Z" stroke="#01AA85" stroke-width="1.5"/>
<path id="Vector_2" d="M16.5 7.33334C18.1317 9.50584 18.1317 12.4942 16.5 14.6667" stroke="#01AA85" stroke-width="1.5" stroke-linecap="round" stroke-linejoin="round"/>
<path id="Vector_3" d="M18.1775 5.04166C20.8267 8.57082 20.8267 13.4292 18.1775 16.9583" stroke="#01AA85" stroke-width="1.5" stroke-linecap="round" stroke-linejoin="round"/>
</g>
</g>
</g>
</svg>
