<svg width="24" height="24" viewBox="0 0 24 24" fill="none" xmlns="http://www.w3.org/2000/svg">
<path d="M15 8.37V7.41C15 4.43 12.93 3.29 10.41 4.87L7.49 6.7C7.17 6.89 6.8 7 6.43 7H5C3 7 2 8 2 10V14C2 16 3 17 5 17H7" stroke="#7F8384" stroke-width="1.5" stroke-linecap="round" stroke-linejoin="round"/>
<path d="M10.41 19.13C12.93 20.71 15 19.56 15 16.59V12.95" stroke="#7F8384" stroke-width="1.5" stroke-linecap="round" stroke-linejoin="round"/>
<path d="M18.81 9.42C19.71 11.57 19.44 14.08 18 16" stroke="#7F8384" stroke-width="1.5" stroke-linecap="round" stroke-linejoin="round"/>
<path d="M21.15 7.8C22.62 11.29 22.18 15.37 19.83 18.5" stroke="#7F8384" stroke-width="1.5" stroke-linecap="round" stroke-linejoin="round"/>
<path d="M22 2L2 22" stroke="#7F8384" stroke-width="1.5" stroke-linecap="round" stroke-linejoin="round"/>
</svg>
