<svg width="16" height="16" viewBox="0 0 16 16" fill="none" xmlns="http://www.w3.org/2000/svg">
<path d="M6.00008 6.66667C6.73646 6.66667 7.33341 6.06971 7.33341 5.33333C7.33341 4.59695 6.73646 4 6.00008 4C5.2637 4 4.66675 4.59695 4.66675 5.33333C4.66675 6.06971 5.2637 6.66667 6.00008 6.66667Z" stroke="#2C2C2C" stroke-width="0.8" stroke-linecap="round" stroke-linejoin="round"/>
<path d="M8.66658 1.33301H5.99992C2.66659 1.33301 1.33325 2.66634 1.33325 5.99967V9.99967C1.33325 13.333 2.66659 14.6663 5.99992 14.6663H9.99992C13.3333 14.6663 14.6666 13.333 14.6666 9.99967V6.66634" stroke="#2C2C2C" stroke-width="0.8" stroke-linecap="round" stroke-linejoin="round"/>
<path d="M10.5 3.33301H14.1667" stroke="#2C2C2C" stroke-width="0.8" stroke-linecap="round"/>
<path d="M12.3333 5.16667V1.5" stroke="#2C2C2C" stroke-width="0.8" stroke-linecap="round"/>
<path d="M1.78003 12.633L5.0667 10.4264C5.59336 10.073 6.35336 10.113 6.8267 10.5197L7.0467 10.713C7.5667 11.1597 8.4067 11.1597 8.9267 10.713L11.7 8.33305C12.22 7.88638 13.06 7.88638 13.58 8.33305L14.6667 9.26638" stroke="#2C2C2C" stroke-width="0.8" stroke-linecap="round" stroke-linejoin="round"/>
</svg>
